<svg xmlns="http://www.w3.org/2000/svg" width="20" height="20"><path d="M16 4.2c-.2.2-1.5 1.9-4.3 3 .2.4.4.7.5 1.1.1.1.1.3.2.4 2.6-.3 5.1.2 5.4.2-.1-1.8-.8-3.4-1.8-4.7M8.2 1.5c.2.3 1.6 2.2 2.9 4.5 2.7-1 3.9-2.6 4-2.8C13.7 2.1 12 1.3 10 1.3c-.6 0-1.2.1-1.8.2M2.5 7.4c.3 0 3.5 0 7.1-.9-1.3-2.3-2.7-4.2-2.9-4.4-2.1 1-3.7 3-4.2 5.3m1.8 6.8c.2-.3 2.3-3.8 6.2-5.1.1-.1.2-.1.3-.1-.2-.4-.4-.9-.6-1.3-3.8 1.1-7.5 1.1-7.9 1.1V9c0 2 .8 3.8 2 5.2m8.7 1.9c-.1-.7-.6-3-1.6-5.8h-.1c-4.3 1.5-5.9 4.5-6 4.8 1.3 1 2.9 1.6 4.7 1.6 1.1 0 2.1-.2 3-.6m4.6-5.9c-.3-.1-2.4-.7-4.8-.3 1 2.8 1.4 5 1.5 5.5 1.7-1.2 2.9-3 3.3-5.2M10 18c-5 0-9-4-9-9s4-9 9-9 9 4 9 9-4 9-9 9" fill="#ea4c89"/></svg>