<svg width="20" height="17" viewBox="0 0 20 17" fill="none" xmlns="http://www.w3.org/2000/svg"><path d="M17.675 4.32c.012.176.012.35.012.526 0 5.337-4.062 11.487-11.487 11.487A11.41 11.41 0 0 1 0 14.521c.325.037.637.05.975.05a8.086 8.086 0 0 0 5.012-1.725 4.045 4.045 0 0 1-3.775-2.8c.25.037.5.062.763.062.362 0 .725-.05 1.062-.137A4.038 4.038 0 0 1 .8 6.008v-.05c.537.3 1.162.488 1.825.513a4.035 4.035 0 0 1-1.8-3.363c0-.75.2-1.437.55-2.037A11.476 11.476 0 0 0 9.7 5.296c-.063-.3-.1-.613-.1-.925 0-2.225 1.8-4.038 4.037-4.038 1.163 0 2.213.488 2.95 1.275A7.95 7.95 0 0 0 19.15.633a4.027 4.027 0 0 1-1.775 2.225 8.093 8.093 0 0 0 2.325-.625 8.679 8.679 0 0 1-2.025 2.088z" fill="#2AA3F0"/></svg>