<svg xmlns="http://www.w3.org/2000/svg" width="20" height="20"><path d="M2 6c.4-.8.9-1.5 1.5-2.1 1.4-1.4 3-2.4 5-2.7 2.7-.4 5.2.2 7.3 2 .1.1.2.2 0 .3l-2.2 2.2c-.1.1-.1.2-.3 0-1.9-1.6-4.9-1.6-6.9.3-.7.6-1.2 1.4-1.5 2.3l-.1-.1C3.9 7.4 2.9 6.7 2 6z" fill-rule="evenodd" clip-rule="evenodd" fill="#d7282a"/><path d="M4.9 11.8c.3.7.6 1.3 1.1 1.9 1.3 1.4 2.8 2 4.7 1.8.9-.1 1.7-.4 2.4-.8l.2.2c.9.7 1.7 1.3 2.6 2-1 .9-2.1 1.5-3.3 1.8-3 .8-5.7.3-8.2-1.7-1-.8-1.8-1.8-2.4-3 1-.7 1.9-1.5 2.9-2.2z" fill="#45ac43" fill-rule="evenodd" clip-rule="evenodd"/><path d="M15.9 16.8c-.9-.7-1.7-1.3-2.6-2l-.2-.2c.6-.4 1.1-1 1.4-1.6.1-.3.2-.5.3-.8.1-.2 0-.3-.2-.3h-4.3c-.3 0-.3 0-.3-.3V8.7c0-.2 0-.3.2-.3h8c.1 0 .2 0 .3.2.3 2.3.1 4.5-1.2 6.6-.4.5-.9 1.1-1.4 1.6z" fill="#5d7fbe" fill-rule="evenodd" clip-rule="evenodd"/><path d="M4.9 11.8C3.9 12.5 3 13.3 2 14c-.5-.9-.7-1.8-.9-2.8-.2-1.7 0-3.4.7-4.9.1-.1.1-.2.2-.3.9.7 1.9 1.4 2.8 2.2l.1.1c-.4 1.1-.3 2.3 0 3.5z" fill="#f4c300" fill-rule="evenodd" clip-rule="evenodd"/></svg>